<svg id="visual" viewBox="0 0 900 600" width="900" height="600" xmlns="http://www.w3.org/2000/svg" xmlns:xlink="http://www.w3.org/1999/xlink" version="1.1"><rect x="0" y="0" width="900" height="600" fill="#24252a"></rect><defs><linearGradient id="grad1_0" x1="33.3%" y1="100%" x2="100%" y2="0%"><stop offset="20%" stop-color="#1e1f23" stop-opacity="1"></stop><stop offset="80%" stop-color="#1e1f23" stop-opacity="1"></stop></linearGradient></defs><defs><linearGradient id="grad1_1" x1="33.3%" y1="100%" x2="100%" y2="0%"><stop offset="20%" stop-color="#1e1f23" stop-opacity="1"></stop><stop offset="80%" stop-color="#24252a" stop-opacity="1"></stop></linearGradient></defs><defs><linearGradient id="grad2_0" x1="0%" y1="100%" x2="66.7%" y2="0%"><stop offset="20%" stop-color="#1e1f23" stop-opacity="1"></stop><stop offset="80%" stop-color="#1e1f23" stop-opacity="1"></stop></linearGradient></defs><defs><linearGradient id="grad2_1" x1="0%" y1="100%" x2="66.7%" y2="0%"><stop offset="20%" stop-color="#24252a" stop-opacity="1"></stop><stop offset="80%" stop-color="#1e1f23" stop-opacity="1"></stop></linearGradient></defs><g transform="translate(900, 600)"><path d="M-378.6 0C-378.9 -41.7 -379.2 -83.4 -360.1 -117C-340.9 -150.6 -302.3 -176.1 -266.2 -193.4C-230 -210.7 -196.2 -219.8 -168.7 -232.2C-141.1 -244.6 -119.8 -260.4 -92.7 -285.3C-65.6 -310.3 -32.8 -344.4 0 -378.6L0 0Z" fill="#212226"></path><path d="M-189.3 0C-189.4 -20.8 -189.6 -41.7 -180 -58.5C-170.5 -75.3 -151.2 -88 -133.1 -96.7C-115 -105.3 -98.1 -109.9 -84.3 -116.1C-70.6 -122.3 -59.9 -130.2 -46.4 -142.7C-32.8 -155.1 -16.4 -172.2 0 -189.3L0 0Z" fill="#1e1f23"></path></g><g transform="translate(0, 0)"><path d="M378.6 0C350.2 31.7 321.8 63.3 313.8 102C305.9 140.6 318.3 186.3 306.3 222.5C294.2 258.7 257.7 285.4 221.6 305C185.5 324.6 150 337 113.1 348.1C76.2 359.2 38.1 368.9 0 378.6L0 0Z" fill="#212226"></path><path d="M189.3 0C175.1 15.8 160.9 31.7 156.9 51C152.9 70.3 159.2 93.2 153.1 111.3C147.1 129.4 128.8 142.7 110.8 152.5C92.8 162.3 75 168.5 56.6 174C38.1 179.6 19.1 184.4 0 189.3L0 0Z" fill="#1e1f23"></path></g></svg>